<svg width="90" height="35" viewBox="0 0 90 35" fill="none" xmlns="http://www.w3.org/2000/svg">
<path d="M84.9428 29.1628H73.8202V16.9932H84.9428V29.1628ZM84.9428 0.765625V11.9208H72.8087L68.7627 15.9787V30.1773L72.8087 34.2352H90.0003V0.765625H84.9428Z" fill="black"/>
<path d="M64.7204 0.765625H59.6628V5.838H64.7204V0.765625Z" fill="black"/>
<path d="M64.7204 11.9209H59.6628V34.2312H64.7204V11.9209Z" fill="black"/>
<path d="M56.6282 11.9209H50.5592L45.9363 20.0367H44.0595L39.4366 11.9209H33.3716L39.2213 22.192L32.3601 34.2353H38.4251L43.048 26.1195H46.9478L51.5707 34.2353H57.6397L50.7785 22.192L56.6282 11.9209Z" fill="black"/>
<path d="M30.3372 11.9209H25.2797V29.1629H14.1572V11.9209H9.09961V30.1774L13.1456 34.2353H30.3372V11.9209Z" fill="black"/>
<path d="M5.05755 0.765625H0V34.2352H5.05755V0.765625Z" fill="black"/>
</svg>
