<svg xmlns="http://www.w3.org/2000/svg" version="1.1" xmlns:xlink="http://www.w3.org/1999/xlink" xmlns:svgjs="http://svgjs.dev/svgjs" width="2000" height="1247" viewBox="0 0 2000 1247"><g transform="matrix(1,0,0,1,-1.2121212121212466,243.58624516419252)"><svg viewBox="0 0 396 247" data-background-color="#ffffff" preserveAspectRatio="xMidYMid meet" height="1247" width="2000" xmlns="http://www.w3.org/2000/svg" xmlns:xlink="http://www.w3.org/1999/xlink"><g id="tight-bounds" transform="matrix(1,0,0,1,0.2400000000000091,-0.09999999999999432)"><svg viewBox="0 0 395.52 247.2" height="247.2" width="395.52"><g><svg></svg></g><g><svg viewBox="0 0 395.52 247.2" height="247.2" width="395.52"><g transform="matrix(1,0,0,1,75.54432,71.97441103448276)"><svg viewBox="0 0 244.43135999999998 103.25117793103448" height="103.25117793103448" width="244.43135999999998"><g><svg viewBox="0 0 244.43135999999998 103.25117793103448" height="103.25117793103448" width="244.43135999999998"><g><svg viewBox="0 0 244.43135999999998 103.25117793103448" height="103.25117793103448" width="244.43135999999998"><g><svg viewBox="0 0 244.43135999999998 103.25117793103448" height="103.25117793103448" width="244.43135999999998"><g><svg viewBox="0 0 244.43135999999998 103.25117793103448" height="103.25117793103448" width="244.43135999999998" id="textblock"><g><svg viewBox="0 0 244.43135999999998 103.25117793103448" height="103.25117793103448" width="244.43135999999998"><g transform="matrix(1,0,0,1,0,0)"><svg width="244.43135999999998" viewBox="0.800000011920929 -34.29999923706055 81.19999694824219 34.29999923706055" height="103.25117793103448" data-palette-color="#6b7280"><path d="M0.8 0L0.8-2.45 14.9-28.6 1.85-28.6 1.85-34.3 23.65-34.3 23.65-31.8 9.55-5.7 24-5.7 24 0 0.8 0ZM28.05 0L28.05-34.3 34.45-34.3 34.45-20.4 45.25-20.4 45.25-34.3 51.65-34.3 51.65 0 45.25 0 45.25-14.7 34.45-14.7 34.45 0 28.05 0ZM65.15 0L65.15-12.95 54.65-34.3 61.4-34.3 68.4-19.25 68.59-19.25 75.55-34.3 82-34.3 71.55-12.95 71.55 0 65.15 0Z" opacity="1" transform="matrix(1,0,0,1,0,0)" fill="#ffffff" class="undefined-text-0" data-fill-palette-color="primary" id="text-0"></path></svg></g></svg></g></svg></g></svg></g><g></g></svg></g></svg></g></svg></g><g><path d="M102.049 47.599A122.216 122.216 0 0 1 293.471 47.599L284.16 47.599A112.904 112.904 0 0 0 111.36 47.599L102.049 47.599M102.049 199.601A122.216 122.216 0 0 0 293.471 199.601L284.16 199.601A112.904 112.904 0 0 1 111.36 199.601L102.049 199.601" fill="#ffffff" stroke="transparent" data-fill-palette-color="tertiary"></path></g></svg></g><defs></defs></svg><rect width="395.52" height="247.2" fill="none" stroke="none" visibility="hidden"></rect></g></svg></g></svg>