<?xml version="1.0" standalone="no"?>
<!DOCTYPE svg PUBLIC "-//W3C//DTD SVG 20010904//EN"
 "http://www.w3.org/TR/2001/REC-SVG-20010904/DTD/svg10.dtd">
<svg version="1.0" xmlns="http://www.w3.org/2000/svg"
 width="96.000000pt" height="20.000000pt" viewBox="0 0 96.000000 20.000000"
 preserveAspectRatio="xMidYMid meet">

<g transform="translate(0.000000,20.000000) scale(0.100000,-0.100000)"
fill="#000000" stroke="none">
<path d="M92 170 l-23 -30 49 0 c34 0 53 5 64 18 33 38 31 42 -20 42 -42 0
-51 -4 -70 -30z"/>
<path d="M874 189 c-8 -14 11 -33 25 -25 6 4 11 14 11 22 0 16 -26 19 -36 3z"/>
<path d="M930 110 c0 -64 3 -80 15 -80 12 0 15 16 15 80 0 64 -3 80 -15 80
-12 0 -15 -16 -15 -80z"/>
<path d="M437 173 c-2 -5 -3 -26 -1 -48 1 -22 3 -52 3 -67 1 -18 7 -28 16 -28
11 0 15 12 15 45 0 25 5 45 10 45 6 0 10 -13 10 -29 0 -16 7 -37 16 -45 20
-20 68 -21 84 -1 18 21 5 30 -24 17 -19 -9 -27 -8 -36 4 -11 12 -5 14 34 14
50 0 57 10 30 48 -16 23 -57 29 -83 13 -15 -10 -41 8 -41 28 0 12 -27 15 -33
4z m131 -61 c2 -7 -7 -12 -22 -12 -27 0 -35 15 -13 23 17 7 30 3 35 -11z"/>
<path d="M334 136 c-10 -26 1 -50 25 -56 14 -3 26 -11 29 -18 5 -15 -13 -15
-38 0 -24 15 -37 4 -20 -17 9 -11 26 -15 49 -13 33 3 36 6 36 33 0 23 -5 30
-24 35 -14 3 -26 11 -29 18 -5 15 3 15 28 0 22 -14 35 -6 27 17 -8 20 -75 21
-83 1z"/>
<path d="M620 89 c0 -46 3 -59 15 -59 11 0 15 11 15 38 0 41 15 63 36 55 9 -3
14 -21 14 -49 0 -32 4 -44 15 -44 19 0 21 92 2 108 -7 6 -32 11 -55 10 l-42 0
0 -59z"/>
<path d="M762 138 c-7 -7 -12 -28 -12 -48 0 -20 5 -41 12 -48 16 -16 70 -16
86 0 21 21 13 29 -25 26 -35 -3 -38 -1 -38 22 0 23 3 25 38 22 20 -2 37 1 37
6 0 17 -25 32 -55 32 -17 0 -36 -5 -43 -12z"/>
<path d="M880 90 c0 -47 3 -60 15 -60 12 0 15 13 15 60 0 47 -3 60 -15 60 -12
0 -15 -13 -15 -60z"/>
<path d="M32 107 c-12 -13 -22 -26 -22 -30 0 -4 44 -7 98 -7 90 0 100 2 120
23 12 13 22 26 22 30 0 4 -44 7 -98 7 -90 0 -100 -2 -120 -23z"/>
<path d="M70 30 l-21 -30 50 0 c44 0 52 4 71 30 l21 30 -50 0 c-44 0 -52 -4
-71 -30z"/>
</g>
</svg>
