<?xml version="1.0" standalone="no"?>
<!DOCTYPE svg PUBLIC "-//W3C//DTD SVG 20010904//EN"
 "http://www.w3.org/TR/2001/REC-SVG-20010904/DTD/svg10.dtd">
<svg version="1.0" xmlns="http://www.w3.org/2000/svg"
 width="880.000000pt" height="1001.000000pt" viewBox="0 0 880.000000 1001.000000"
 preserveAspectRatio="xMidYMid meet">

<g transform="translate(0.000000,1001.000000) scale(0.100000,-0.100000)"
fill="#000000" stroke="none">
<path d="M407 9603 c-4 -3 -7 -1821 -7 -4040 l0 -4033 3000 0 3000 0 0 228 0
227 78 40 c42 22 113 63 156 92 43 29 82 53 85 53 3 0 296 -290 651 -645 l645
-645 193 193 192 192 -645 645 c-355 355 -645 648 -645 651 0 3 25 44 56 90
213 318 323 742 294 1131 -34 449 -209 840 -524 1166 -120 125 -325 275 -484
356 l-52 26 0 1153 0 1152 -988 988 -987 987 -2006 0 c-1103 0 -2009 -3 -2012
-7z m3633 -1453 l0 -910 908 0 907 0 -1 -813 c0 -446 -2 -839 -2 -872 l-2 -60
-217 0 c-292 -1 -457 -31 -703 -130 -241 -97 -488 -266 -653 -447 l-72 -78
-1307 0 -1308 0 0 -275 0 -275 1149 0 1150 0 -20 -57 c-57 -167 -89 -357 -89
-540 l0 -123 -1095 0 -1095 0 0 -275 0 -275 1148 0 1148 0 34 -77 c146 -341
419 -664 713 -842 20 -12 37 -25 37 -27 0 -2 -837 -4 -1860 -4 l-1860 0 0
3495 0 3495 1545 0 1545 0 0 -910z m993 -358 c-236 -1 -434 0 -440 3 -10 3
-13 101 -13 442 l0 438 440 -440 440 -440 -427 -3z m813 -2857 c637 -112 1101
-690 1071 -1335 -17 -343 -153 -641 -403 -880 -256 -245 -582 -370 -934 -357
-335 12 -616 130 -856 359 -200 192 -340 457 -386 732 -18 107 -15 335 5 438
105 529 506 933 1032 1038 117 24 349 26 471 5z"/>
<path d="M1590 5838 l0 -273 1803 1 c991 1 1808 2 1815 3 9 1 12 62 12 271 l0
270 -1815 0 -1815 0 0 -272z"/>
</g>
</svg>
