<svg width="189.8299560546875px" height="122.021240234375px" xmlns="http://www.w3.org/2000/svg" viewBox="155.08502197265625 13.9893798828125 189.8299560546875 122.021240234375" style="background: rgba(0, 0, 0, 0);" preserveAspectRatio="xMidYMid"><defs><filter id="editing-jagged" x="-100%" y="-100%" width="300%" height="300%"><feTurbulence result="turb" baseFrequency="0.1" numOctaves="1" seed="1"></feTurbulence><feDisplacementMap in="SourceGraphic" in2="turb" scale="10"></feDisplacementMap></filter></defs><g filter="url(#editing-jagged)"><g transform="translate(189.64562329649925, 97.32718658447266)"><path d="M14.62 0.16L14.62 0.16L14.62 0.16Q11.20-0.45 9.41-0.70L9.41-0.70L9.41-0.70Q7.62-0.96 5.73-0.96L5.73-0.96L5.73-0.96Q3.84-0.96 2.88 0L2.88 0L2.88 0Q1.41-1.09 0.64-4.54L0.64-4.54L0.64-4.54Q0.38-5.50 0.38-7.10L0.38-7.10L0.38-7.10Q0.38-10.56 4.35-13.95L4.35-13.95L24.32-30.34L24.32-30.34Q16.06-31.68 12.74-31.68L12.74-31.68L12.74-31.68Q9.41-31.68 6.34-30.21L6.34-30.21L6.34-30.21Q4.61-33.02 4.61-36.29L4.61-36.29L4.61-36.29Q4.61-39.55 7.01-41.22L7.01-41.22L7.01-41.22Q9.41-42.88 13.44-42.88L13.44-42.88L13.44-42.88Q15.23-42.88 17.15-42.62L17.15-42.62L17.15-42.62Q19.07-42.37 20.99-42.11L20.99-42.11L24.77-41.54L24.77-41.54Q26.62-41.28 29.02-41.28L29.02-41.28L29.02-41.28Q31.42-41.28 34.11-41.92L34.11-41.92L34.11-41.92Q36.67-39.68 36.67-35.97L36.67-35.97L36.67-35.97Q36.67-31.49 33.60-29.06L33.60-29.06L11.84-11.65L11.84-11.65Q16.51-10.37 24.26-10.37L24.26-10.37L24.26-10.37Q28.10-10.37 30.53-12.29L30.53-12.29L30.53-12.29Q31.62-10.88 31.90-9.70L31.90-9.70L31.90-9.70Q32.19-8.51 32.19-6.82L32.19-6.82L32.19-6.82Q32.19-5.12 31.62-3.74L31.62-3.74L31.62-3.74Q31.04-2.37 29.82-1.34L29.82-1.34L29.82-1.34Q27.39 0.77 22.02 0.77L22.02 0.77L22.02 0.77Q18.05 0.77 14.62 0.16ZM61.89-4.80L61.89-4.80L61.89-4.80Q61.89-9.28 63.68-18.24L63.68-18.24L54.21-18.24L50.69 0L37.31 0L45.44-42.24L58.94-42.24L55.23-23.36L64.70-23.36L68.22-42.24L81.73-42.24L81.73-42.24Q80.83-37.50 79.68-32.19L79.68-32.19L77.50-21.76L77.50-21.76Q75.07-9.60 75.07-4.29L75.07-4.29L75.07-4.29Q75.07-2.11 75.78-0.90L75.78-0.90L75.78-0.90Q72.58 1.28 68.83 1.28L68.83 1.28L68.83 1.28Q65.09 1.28 63.49-0.51L63.49-0.51L63.49-0.51Q61.89-2.30 61.89-4.80ZM89.34 0L93.06-18.82L93.06-18.82Q91.20-36.16 84.67-39.87L84.67-39.87L84.67-39.87Q86.02-41.54 88.19-42.46L88.19-42.46L88.19-42.46Q90.37-43.39 92.99-43.39L92.99-43.39L92.99-43.39Q95.62-43.39 97.60-42.46L97.60-42.46L97.60-42.46Q99.58-41.54 100.86-39.55L100.86-39.55L100.86-39.55Q103.30-35.78 103.30-26.75L103.30-26.75L103.30-22.14L103.30-22.14Q107.14-33.41 110.98-38.27L110.98-38.27L110.98-38.27Q114.88-43.26 119.74-43.26L119.74-43.26L119.74-43.26Q121.66-43.26 122.94-42.27L122.94-42.27L122.94-42.27Q124.22-41.28 124.86-39.81L124.86-39.81L124.86-39.81Q119.94-37.63 115.20-31.36L115.20-31.36L115.20-31.36Q110.46-25.09 107.39-16.32L107.39-16.32L103.62 0L89.34 0Z" fill="#444"></path></g></g><style>text {
  font-size: 64px;
  font-family: Arial Black;
  dominant-baseline: central;
  text-anchor: middle;
}</style></svg>